# xmcd
#
# Track frame offsets:
#	150
#	14050
#	29068
#	42231
#	55153
#	66927
#	81116
#	94214
#	109648
#	121670
#
# Disc length: 1777 seconds
#
# Revision: 0
# Processed by: cddbd v1.5.1PL2 Copyright (c) Steve Scherf et al.
# Submitted via: dBpowerAMP V4.0
#
DISCID=8306ef0a
DTITLE=Roy Clark - The Best Of
DYEAR=1900
DGENRE=
TTITLE0=Honeymoon Feeling
TTITLE1=Yesterday When I Was Young
TTITLE2=Come Live With Me
TTITLE3=Heart to Heart
TTITLE4=If I Had to Do It All Over Again
TTITLE5=The Tips of My Fingers
TTITLE6=Another Lonely Night With You
TTITLE7=Somewhere Between Love and Tomorrow
TTITLE8=I Never Picked Cotton
TTITLE9=Thank God and Greyhound 
EXTD=
EXTT0=
EXTT1=
EXTT2=
EXTT3=
EXTT4=
EXTT5=
EXTT6=
EXTT7=
EXTT8=
EXTT9=
PLAYORDER=
